<mxfile host="app.diagrams.net" agent="Mozilla/5.0 (Windows NT 10.0; Win64; x64) AppleWebKit/537.36 (KHTML, like Gecko) Chrome/134.0.0.0 Safari/537.36 Edg/134.0.0.0" version="26.1.0" pages="4">
  <diagram name="Diagrama de uso" id="Dri4ST9QpF148099Q7ri">
    <mxGraphModel dx="1737" dy="2111" grid="1" gridSize="10" guides="1" tooltips="1" connect="1" arrows="1" fold="1" page="1" pageScale="1" pageWidth="827" pageHeight="1169" math="0" shadow="0">
      <root>
        <mxCell id="0" />
        <mxCell id="1" parent="0" />
        <mxCell id="58LR6_WjlATcZgtOVcSv-1" value="Cliente" style="shape=umlActor;verticalLabelPosition=bottom;verticalAlign=top;html=1;outlineConnect=0;" vertex="1" parent="1">
          <mxGeometry x="50" y="-810" width="70" height="100" as="geometry" />
        </mxCell>
        <mxCell id="58LR6_WjlATcZgtOVcSv-3" value="&lt;b&gt;&lt;font style=&quot;font-size: 20px;&quot;&gt;Bodega de Seu Zé&lt;/font&gt;&lt;/b&gt;" style="rounded=1;whiteSpace=wrap;html=1;" vertex="1" parent="1">
          <mxGeometry x="230" y="-1040" width="310" height="60" as="geometry" />
        </mxCell>
        <mxCell id="58LR6_WjlATcZgtOVcSv-4" value="Dono" style="shape=umlActor;verticalLabelPosition=bottom;verticalAlign=top;html=1;outlineConnect=0;" vertex="1" parent="1">
          <mxGeometry x="640" y="-810" width="70" height="100" as="geometry" />
        </mxCell>
        <mxCell id="58LR6_WjlATcZgtOVcSv-5" value="&lt;b&gt;&lt;font style=&quot;font-size: 13px;&quot;&gt;Diagrama&amp;nbsp;&lt;/font&gt;&lt;/b&gt;&lt;div&gt;&lt;b&gt;&lt;font style=&quot;font-size: 13px;&quot;&gt;de&amp;nbsp;&lt;/font&gt;&lt;/b&gt;&lt;b style=&quot;background-color: transparent; color: light-dark(rgb(0, 0, 0), rgb(255, 255, 255));&quot;&gt;&lt;font style=&quot;font-size: 13px;&quot;&gt;Uso&lt;/font&gt;&lt;/b&gt;&lt;/div&gt;" style="ellipse;shape=cloud;whiteSpace=wrap;html=1;" vertex="1" parent="1">
          <mxGeometry x="320" y="-960" width="120" height="80" as="geometry" />
        </mxCell>
        <mxCell id="58LR6_WjlATcZgtOVcSv-6" value="Check-in" style="rounded=1;whiteSpace=wrap;html=1;" vertex="1" parent="1">
          <mxGeometry x="320" y="-850" width="120" height="60" as="geometry" />
        </mxCell>
        <mxCell id="58LR6_WjlATcZgtOVcSv-7" value="Check-out" style="rounded=1;whiteSpace=wrap;html=1;" vertex="1" parent="1">
          <mxGeometry x="325" y="-770" width="120" height="60" as="geometry" />
        </mxCell>
        <mxCell id="58LR6_WjlATcZgtOVcSv-8" value="Estoque" style="rounded=1;whiteSpace=wrap;html=1;" vertex="1" parent="1">
          <mxGeometry x="190" y="-670" width="120" height="60" as="geometry" />
        </mxCell>
        <mxCell id="58LR6_WjlATcZgtOVcSv-9" value="Disponibilidade de&lt;div&gt;Produtos&lt;/div&gt;" style="rounded=1;whiteSpace=wrap;html=1;" vertex="1" parent="1">
          <mxGeometry x="450" y="-670" width="120" height="60" as="geometry" />
        </mxCell>
        <mxCell id="58LR6_WjlATcZgtOVcSv-12" value="Manutenção" style="rounded=1;whiteSpace=wrap;html=1;" vertex="1" parent="1">
          <mxGeometry x="320" y="-600" width="120" height="60" as="geometry" />
        </mxCell>
        <mxCell id="58LR6_WjlATcZgtOVcSv-13" value="Reparo" style="rounded=1;whiteSpace=wrap;html=1;" vertex="1" parent="1">
          <mxGeometry x="350" y="-530" width="120" height="60" as="geometry" />
        </mxCell>
      </root>
    </mxGraphModel>
  </diagram>
  <diagram id="pAebifFPhIeEuVFn26p7" name="Sistema de Caixa Eletrônico">
    <mxGraphModel dx="1042" dy="565" grid="1" gridSize="10" guides="1" tooltips="1" connect="1" arrows="1" fold="1" page="1" pageScale="1" pageWidth="827" pageHeight="1169" math="0" shadow="0">
      <root>
        <mxCell id="0" />
        <mxCell id="1" parent="0" />
        <mxCell id="0wuUQczXKdUuu9wCgXii-3" value="&lt;b&gt;Cliente&lt;/b&gt;" style="shape=umlActor;verticalLabelPosition=bottom;verticalAlign=top;html=1;outlineConnect=0;fillColor=light-dark(#ff3333, #ededed);" parent="1" vertex="1">
          <mxGeometry x="80" y="200" width="70" height="130" as="geometry" />
        </mxCell>
        <mxCell id="0wuUQczXKdUuu9wCgXii-22" value="" style="rounded=0;whiteSpace=wrap;html=1;rotation=90;" parent="1" vertex="1">
          <mxGeometry x="100" y="175" width="620" height="305" as="geometry" />
        </mxCell>
        <mxCell id="0wuUQczXKdUuu9wCgXii-4" value="&lt;b&gt;&lt;font style=&quot;color: rgb(255, 255, 255);&quot;&gt;Checar saldo&lt;/font&gt;&lt;/b&gt;" style="ellipse;whiteSpace=wrap;html=1;fillColor=light-dark(#FF3333,var(--ge-dark-color, #121212));" parent="1" vertex="1">
          <mxGeometry x="354" y="80" width="120" height="80" as="geometry" />
        </mxCell>
        <mxCell id="0wuUQczXKdUuu9wCgXii-5" value="&lt;b&gt;&lt;font style=&quot;color: rgb(255, 255, 255);&quot;&gt;Depositar&lt;/font&gt;&lt;/b&gt;" style="ellipse;whiteSpace=wrap;html=1;fillColor=light-dark(#FF3333,var(--ge-dark-color, #121212));" parent="1" vertex="1">
          <mxGeometry x="354" y="170" width="120" height="80" as="geometry" />
        </mxCell>
        <mxCell id="0wuUQczXKdUuu9wCgXii-7" value="&lt;b&gt;&lt;font style=&quot;color: rgb(255, 255, 255);&quot;&gt;Sacar&lt;/font&gt;&lt;/b&gt;" style="ellipse;whiteSpace=wrap;html=1;fillColor=light-dark(#FF3333,var(--ge-dark-color, #121212));" parent="1" vertex="1">
          <mxGeometry x="354" y="260" width="120" height="80" as="geometry" />
        </mxCell>
        <mxCell id="0wuUQczXKdUuu9wCgXii-8" value="&lt;b&gt;&lt;font style=&quot;color: rgb(255, 255, 255);&quot;&gt;Transferir&lt;/font&gt;&lt;/b&gt;" style="ellipse;whiteSpace=wrap;html=1;fillColor=light-dark(#FF3333,var(--ge-dark-color, #121212));strokeColor=light-dark(#f9f1f1, #ededed);" parent="1" vertex="1">
          <mxGeometry x="354" y="350" width="120" height="80" as="geometry" />
        </mxCell>
        <mxCell id="0wuUQczXKdUuu9wCgXii-9" value="&lt;font style=&quot;font-size: 18px;&quot;&gt;Sistema de Caixa Eletrônico&lt;/font&gt;" style="text;strokeColor=none;fillColor=none;html=1;fontSize=24;fontStyle=1;verticalAlign=middle;align=center;" parent="1" vertex="1">
          <mxGeometry x="364" y="30" width="100" height="40" as="geometry" />
        </mxCell>
        <mxCell id="0wuUQczXKdUuu9wCgXii-10" value="" style="endArrow=none;html=1;rounded=0;entryX=-0.01;entryY=0.725;entryDx=0;entryDy=0;entryPerimeter=0;" parent="1" target="0wuUQczXKdUuu9wCgXii-4" edge="1">
          <mxGeometry width="50" height="50" relative="1" as="geometry">
            <mxPoint x="150" y="245" as="sourcePoint" />
            <mxPoint x="200" y="195" as="targetPoint" />
          </mxGeometry>
        </mxCell>
        <mxCell id="0wuUQczXKdUuu9wCgXii-11" value="" style="endArrow=none;html=1;rounded=0;entryX=0;entryY=0.5;entryDx=0;entryDy=0;" parent="1" source="0wuUQczXKdUuu9wCgXii-3" target="0wuUQczXKdUuu9wCgXii-5" edge="1">
          <mxGeometry width="50" height="50" relative="1" as="geometry">
            <mxPoint x="390" y="230" as="sourcePoint" />
            <mxPoint x="440" y="180" as="targetPoint" />
          </mxGeometry>
        </mxCell>
        <mxCell id="0wuUQczXKdUuu9wCgXii-12" value="" style="endArrow=none;html=1;rounded=0;entryX=0.01;entryY=0.425;entryDx=0;entryDy=0;entryPerimeter=0;" parent="1" source="0wuUQczXKdUuu9wCgXii-3" target="0wuUQczXKdUuu9wCgXii-7" edge="1">
          <mxGeometry width="50" height="50" relative="1" as="geometry">
            <mxPoint x="160" y="290" as="sourcePoint" />
            <mxPoint x="330" y="320" as="targetPoint" />
          </mxGeometry>
        </mxCell>
        <mxCell id="0wuUQczXKdUuu9wCgXii-13" value="" style="endArrow=none;html=1;rounded=0;entryX=0.023;entryY=0.42;entryDx=0;entryDy=0;entryPerimeter=0;" parent="1" target="0wuUQczXKdUuu9wCgXii-8" edge="1">
          <mxGeometry width="50" height="50" relative="1" as="geometry">
            <mxPoint x="150" y="280" as="sourcePoint" />
            <mxPoint x="270" y="330" as="targetPoint" />
          </mxGeometry>
        </mxCell>
        <mxCell id="0wuUQczXKdUuu9wCgXii-15" value="&lt;b&gt;Banco&lt;/b&gt;" style="shape=umlActor;verticalLabelPosition=bottom;verticalAlign=top;html=1;outlineConnect=0;fillColor=light-dark(#ff3333, #ededed);" parent="1" vertex="1">
          <mxGeometry x="660" y="270" width="60" height="110" as="geometry" />
        </mxCell>
        <mxCell id="0wuUQczXKdUuu9wCgXii-16" value="" style="endArrow=none;html=1;rounded=0;exitX=0.977;exitY=0.605;exitDx=0;exitDy=0;exitPerimeter=0;" parent="1" source="0wuUQczXKdUuu9wCgXii-4" target="0wuUQczXKdUuu9wCgXii-15" edge="1">
          <mxGeometry width="50" height="50" relative="1" as="geometry">
            <mxPoint x="600" y="220" as="sourcePoint" />
            <mxPoint x="650" y="290" as="targetPoint" />
          </mxGeometry>
        </mxCell>
        <mxCell id="0wuUQczXKdUuu9wCgXii-17" value="" style="endArrow=none;html=1;rounded=0;entryX=1.043;entryY=0.65;entryDx=0;entryDy=0;entryPerimeter=0;" parent="1" source="0wuUQczXKdUuu9wCgXii-15" target="0wuUQczXKdUuu9wCgXii-5" edge="1">
          <mxGeometry width="50" height="50" relative="1" as="geometry">
            <mxPoint x="390" y="230" as="sourcePoint" />
            <mxPoint x="440" y="180" as="targetPoint" />
          </mxGeometry>
        </mxCell>
        <mxCell id="0wuUQczXKdUuu9wCgXii-18" value="" style="endArrow=none;html=1;rounded=0;exitX=1;exitY=0.5;exitDx=0;exitDy=0;" parent="1" source="0wuUQczXKdUuu9wCgXii-7" edge="1">
          <mxGeometry width="50" height="50" relative="1" as="geometry">
            <mxPoint x="520" y="380" as="sourcePoint" />
            <mxPoint x="650" y="320" as="targetPoint" />
          </mxGeometry>
        </mxCell>
        <mxCell id="0wuUQczXKdUuu9wCgXii-19" value="" style="endArrow=none;html=1;rounded=0;exitX=0.997;exitY=0.3;exitDx=0;exitDy=0;exitPerimeter=0;" parent="1" source="0wuUQczXKdUuu9wCgXii-8" target="0wuUQczXKdUuu9wCgXii-15" edge="1">
          <mxGeometry width="50" height="50" relative="1" as="geometry">
            <mxPoint x="580" y="400" as="sourcePoint" />
            <mxPoint x="620" y="360" as="targetPoint" />
          </mxGeometry>
        </mxCell>
        <mxCell id="0wuUQczXKdUuu9wCgXii-20" value="&lt;b&gt;&lt;font style=&quot;color: rgb(255, 255, 255);&quot;&gt;Manutenção&lt;/font&gt;&lt;/b&gt;" style="ellipse;whiteSpace=wrap;html=1;fillColor=light-dark(#FF3333,var(--ge-dark-color, #121212));" parent="1" vertex="1">
          <mxGeometry x="350" y="450" width="120" height="80" as="geometry" />
        </mxCell>
        <mxCell id="0wuUQczXKdUuu9wCgXii-21" value="&lt;b&gt;&lt;font style=&quot;color: rgb(255, 255, 255);&quot;&gt;Reparo&lt;/font&gt;&lt;/b&gt;" style="ellipse;whiteSpace=wrap;html=1;fillColor=light-dark(#FF0000,var(--ge-dark-color, #121212));" parent="1" vertex="1">
          <mxGeometry x="354" y="545" width="120" height="80" as="geometry" />
        </mxCell>
        <mxCell id="8yF3wnFYYNAsYswZnkt6-1" value="" style="endArrow=none;html=1;rounded=0;exitX=1.027;exitY=0.35;exitDx=0;exitDy=0;exitPerimeter=0;" parent="1" source="0wuUQczXKdUuu9wCgXii-20" target="0wuUQczXKdUuu9wCgXii-15" edge="1">
          <mxGeometry width="50" height="50" relative="1" as="geometry">
            <mxPoint x="610" y="415" as="sourcePoint" />
            <mxPoint x="660" y="365" as="targetPoint" />
          </mxGeometry>
        </mxCell>
        <mxCell id="8yF3wnFYYNAsYswZnkt6-3" value="" style="endArrow=none;html=1;rounded=0;exitX=0.973;exitY=0.372;exitDx=0;exitDy=0;exitPerimeter=0;" parent="1" source="0wuUQczXKdUuu9wCgXii-21" target="0wuUQczXKdUuu9wCgXii-15" edge="1">
          <mxGeometry width="50" height="50" relative="1" as="geometry">
            <mxPoint x="520" y="610" as="sourcePoint" />
            <mxPoint x="660" y="380" as="targetPoint" />
          </mxGeometry>
        </mxCell>
        <mxCell id="8yF3wnFYYNAsYswZnkt6-4" value="&lt;b&gt;Técnico&lt;/b&gt;&lt;div&gt;&lt;br&gt;&lt;/div&gt;" style="shape=umlActor;verticalLabelPosition=bottom;verticalAlign=top;html=1;outlineConnect=0;fillColor=light-dark(#ff3333, #ededed);" parent="1" vertex="1">
          <mxGeometry x="80" y="460" width="60" height="100" as="geometry" />
        </mxCell>
        <mxCell id="8yF3wnFYYNAsYswZnkt6-5" value="" style="endArrow=none;html=1;rounded=0;entryX=0;entryY=0.5;entryDx=0;entryDy=0;" parent="1" source="8yF3wnFYYNAsYswZnkt6-4" target="0wuUQczXKdUuu9wCgXii-20" edge="1">
          <mxGeometry width="50" height="50" relative="1" as="geometry">
            <mxPoint x="150" y="510" as="sourcePoint" />
            <mxPoint x="190" y="470" as="targetPoint" />
          </mxGeometry>
        </mxCell>
        <mxCell id="8yF3wnFYYNAsYswZnkt6-6" value="" style="endArrow=none;html=1;rounded=0;entryX=-0.027;entryY=0.403;entryDx=0;entryDy=0;entryPerimeter=0;" parent="1" source="8yF3wnFYYNAsYswZnkt6-4" target="0wuUQczXKdUuu9wCgXii-21" edge="1">
          <mxGeometry width="50" height="50" relative="1" as="geometry">
            <mxPoint x="140" y="535" as="sourcePoint" />
            <mxPoint x="190" y="485" as="targetPoint" />
          </mxGeometry>
        </mxCell>
      </root>
    </mxGraphModel>
  </diagram>
  <diagram id="jU0BppbbvkyTibK1-Dns" name="Sistema de Hospedagem de Hotel">
    <mxGraphModel dx="1042" dy="2903" grid="1" gridSize="10" guides="1" tooltips="1" connect="1" arrows="1" fold="1" page="1" pageScale="1" pageWidth="827" pageHeight="1169" math="0" shadow="0">
      <root>
        <mxCell id="0" />
        <mxCell id="1" parent="0" />
        <mxCell id="E3XnA7YZc7okgdu8DbcA-1" value="&lt;font style=&quot;font-size: 20px; color: rgb(255, 255, 255);&quot;&gt;&lt;b&gt;Sistema de Hospedagem de Hotel&lt;/b&gt;&lt;/font&gt;" style="rounded=1;whiteSpace=wrap;html=1;fillColor=#66B2FF;" parent="1" vertex="1">
          <mxGeometry x="135" y="-1190" width="510" height="60" as="geometry" />
        </mxCell>
        <mxCell id="E3XnA7YZc7okgdu8DbcA-9" style="edgeStyle=orthogonalEdgeStyle;rounded=0;orthogonalLoop=1;jettySize=auto;html=1;exitX=0.5;exitY=0.5;exitDx=0;exitDy=0;exitPerimeter=0;entryX=0;entryY=0.5;entryDx=0;entryDy=0;" parent="1" source="E3XnA7YZc7okgdu8DbcA-3" target="E3XnA7YZc7okgdu8DbcA-8" edge="1">
          <mxGeometry relative="1" as="geometry" />
        </mxCell>
        <mxCell id="E3XnA7YZc7okgdu8DbcA-12" style="edgeStyle=orthogonalEdgeStyle;rounded=0;orthogonalLoop=1;jettySize=auto;html=1;exitX=0.5;exitY=0.5;exitDx=0;exitDy=0;exitPerimeter=0;entryX=0;entryY=0.5;entryDx=0;entryDy=0;" parent="1" source="E3XnA7YZc7okgdu8DbcA-3" target="E3XnA7YZc7okgdu8DbcA-11" edge="1">
          <mxGeometry relative="1" as="geometry">
            <Array as="points">
              <mxPoint x="120" y="-950" />
              <mxPoint x="240" y="-950" />
              <mxPoint x="240" y="-910" />
            </Array>
          </mxGeometry>
        </mxCell>
        <mxCell id="E3XnA7YZc7okgdu8DbcA-14" style="edgeStyle=orthogonalEdgeStyle;rounded=0;orthogonalLoop=1;jettySize=auto;html=1;exitX=1;exitY=1;exitDx=0;exitDy=0;exitPerimeter=0;entryX=0;entryY=0.5;entryDx=0;entryDy=0;" parent="1" source="E3XnA7YZc7okgdu8DbcA-3" target="E3XnA7YZc7okgdu8DbcA-13" edge="1">
          <mxGeometry relative="1" as="geometry" />
        </mxCell>
        <mxCell id="E3XnA7YZc7okgdu8DbcA-3" value="Recepcionista" style="shape=umlActor;verticalLabelPosition=bottom;verticalAlign=top;html=1;outlineConnect=0;fillColor=#66B2FF;" parent="1" vertex="1">
          <mxGeometry x="90" y="-1020" width="60" height="100" as="geometry" />
        </mxCell>
        <mxCell id="E3XnA7YZc7okgdu8DbcA-8" value="&lt;font style=&quot;color: rgb(255, 255, 255);&quot;&gt;&lt;b&gt;Gerenciamento do Hotel&lt;/b&gt;&lt;/font&gt;" style="ellipse;whiteSpace=wrap;html=1;fillColor=#66B2FF;" parent="1" vertex="1">
          <mxGeometry x="330" y="-1050" width="120" height="80" as="geometry" />
        </mxCell>
        <mxCell id="E3XnA7YZc7okgdu8DbcA-11" value="&lt;font style=&quot;color: rgb(255, 255, 255);&quot;&gt;&lt;b&gt;Gerenciamento de Hospedagem&lt;/b&gt;&lt;/font&gt;" style="ellipse;whiteSpace=wrap;html=1;fillColor=light-dark(#66b2ff, #ededed);" parent="1" vertex="1">
          <mxGeometry x="330" y="-950" width="120" height="80" as="geometry" />
        </mxCell>
        <mxCell id="E3XnA7YZc7okgdu8DbcA-13" value="&lt;font style=&quot;color: rgb(255, 255, 255);&quot;&gt;&lt;b&gt;Disponibilidade de Quartos&lt;/b&gt;&lt;/font&gt;" style="ellipse;whiteSpace=wrap;html=1;fillColor=#66B2FF;" parent="1" vertex="1">
          <mxGeometry x="330" y="-860" width="120" height="80" as="geometry" />
        </mxCell>
        <mxCell id="E3XnA7YZc7okgdu8DbcA-20" style="edgeStyle=orthogonalEdgeStyle;rounded=0;orthogonalLoop=1;jettySize=auto;html=1;exitX=0;exitY=1;exitDx=0;exitDy=0;exitPerimeter=0;entryX=1;entryY=0.5;entryDx=0;entryDy=0;" parent="1" source="E3XnA7YZc7okgdu8DbcA-16" target="E3XnA7YZc7okgdu8DbcA-17" edge="1">
          <mxGeometry relative="1" as="geometry" />
        </mxCell>
        <mxCell id="E3XnA7YZc7okgdu8DbcA-16" value="Cliente" style="shape=umlActor;verticalLabelPosition=bottom;verticalAlign=top;html=1;outlineConnect=0;fillColor=#66B2FF;" parent="1" vertex="1">
          <mxGeometry x="640" y="-1020" width="60" height="100" as="geometry" />
        </mxCell>
        <mxCell id="E3XnA7YZc7okgdu8DbcA-17" value="&lt;font style=&quot;color: rgb(255, 255, 255);&quot;&gt;&lt;b&gt;Gerenciamento de Pagamenrtos&lt;/b&gt;&lt;/font&gt;" style="ellipse;whiteSpace=wrap;html=1;fillColor=#66B2FF;" parent="1" vertex="1">
          <mxGeometry x="330" y="-770" width="120" height="80" as="geometry" />
        </mxCell>
        <mxCell id="E3XnA7YZc7okgdu8DbcA-18" style="edgeStyle=orthogonalEdgeStyle;rounded=0;orthogonalLoop=1;jettySize=auto;html=1;exitX=0;exitY=1;exitDx=0;exitDy=0;exitPerimeter=0;entryX=0.007;entryY=0.675;entryDx=0;entryDy=0;entryPerimeter=0;" parent="1" source="E3XnA7YZc7okgdu8DbcA-3" target="E3XnA7YZc7okgdu8DbcA-17" edge="1">
          <mxGeometry relative="1" as="geometry" />
        </mxCell>
        <mxCell id="E3XnA7YZc7okgdu8DbcA-19" style="edgeStyle=orthogonalEdgeStyle;rounded=0;orthogonalLoop=1;jettySize=auto;html=1;exitX=0.5;exitY=0.5;exitDx=0;exitDy=0;exitPerimeter=0;entryX=0.993;entryY=0.67;entryDx=0;entryDy=0;entryPerimeter=0;" parent="1" source="E3XnA7YZc7okgdu8DbcA-16" target="E3XnA7YZc7okgdu8DbcA-13" edge="1">
          <mxGeometry relative="1" as="geometry" />
        </mxCell>
        <mxCell id="E3XnA7YZc7okgdu8DbcA-22" value="Segurança" style="shape=umlActor;verticalLabelPosition=bottom;verticalAlign=top;html=1;outlineConnect=0;fillColor=#66B2FF;" parent="1" vertex="1">
          <mxGeometry x="90" y="-670" width="60" height="100" as="geometry" />
        </mxCell>
        <mxCell id="E3XnA7YZc7okgdu8DbcA-26" style="edgeStyle=orthogonalEdgeStyle;rounded=0;orthogonalLoop=1;jettySize=auto;html=1;exitX=1;exitY=0.3333333333333333;exitDx=0;exitDy=0;exitPerimeter=0;entryX=1;entryY=0.255;entryDx=0;entryDy=0;entryPerimeter=0;" parent="1" source="E3XnA7YZc7okgdu8DbcA-22" target="E3XnA7YZc7okgdu8DbcA-8" edge="1">
          <mxGeometry relative="1" as="geometry">
            <Array as="points">
              <mxPoint x="150" y="-610" />
              <mxPoint x="470" y="-610" />
              <mxPoint x="470" y="-1030" />
            </Array>
          </mxGeometry>
        </mxCell>
        <mxCell id="E3XnA7YZc7okgdu8DbcA-28" value="Auxiliar de Limpeza" style="shape=umlActor;verticalLabelPosition=bottom;verticalAlign=top;html=1;outlineConnect=0;fillColor=#66B2FF;" parent="1" vertex="1">
          <mxGeometry x="640" y="-670" width="60" height="100" as="geometry" />
        </mxCell>
        <mxCell id="E3XnA7YZc7okgdu8DbcA-29" style="edgeStyle=orthogonalEdgeStyle;rounded=0;orthogonalLoop=1;jettySize=auto;html=1;exitX=0.5;exitY=0.5;exitDx=0;exitDy=0;exitPerimeter=0;entryX=0.999;entryY=0.248;entryDx=0;entryDy=0;entryPerimeter=0;" parent="1" source="E3XnA7YZc7okgdu8DbcA-28" target="E3XnA7YZc7okgdu8DbcA-11" edge="1">
          <mxGeometry relative="1" as="geometry" />
        </mxCell>
      </root>
    </mxGraphModel>
  </diagram>
  <diagram id="lSjh2FISkUy2BpdmxqtP" name="Diagrama de Classe">
    <mxGraphModel dx="1042" dy="565" grid="1" gridSize="10" guides="1" tooltips="1" connect="1" arrows="1" fold="1" page="1" pageScale="1" pageWidth="827" pageHeight="1169" math="0" shadow="0">
      <root>
        <mxCell id="0" />
        <mxCell id="1" parent="0" />
        <mxCell id="y3grwVLMVL60Ikn23H3Z-6" value="&lt;font style=&quot;font-size: 20px;&quot;&gt;Sistema de Educação a Distância&lt;/font&gt;" style="rounded=1;whiteSpace=wrap;html=1;" vertex="1" parent="1">
          <mxGeometry x="233" y="70" width="360" height="60" as="geometry" />
        </mxCell>
        <mxCell id="y3grwVLMVL60Ikn23H3Z-8" value="Aulas EAD" style="swimlane;fontStyle=0;childLayout=stackLayout;horizontal=1;startSize=30;horizontalStack=0;resizeParent=1;resizeParentMax=0;resizeLast=0;collapsible=1;marginBottom=0;whiteSpace=wrap;html=1;" vertex="1" parent="1">
          <mxGeometry x="343" y="300" width="140" height="120" as="geometry" />
        </mxCell>
        <mxCell id="y3grwVLMVL60Ikn23H3Z-9" value="Apostilas" style="text;strokeColor=none;fillColor=none;align=left;verticalAlign=middle;spacingLeft=4;spacingRight=4;overflow=hidden;points=[[0,0.5],[1,0.5]];portConstraint=eastwest;rotatable=0;whiteSpace=wrap;html=1;" vertex="1" parent="y3grwVLMVL60Ikn23H3Z-8">
          <mxGeometry y="30" width="140" height="30" as="geometry" />
        </mxCell>
        <mxCell id="y3grwVLMVL60Ikn23H3Z-10" value="Mapa mental" style="text;strokeColor=none;fillColor=none;align=left;verticalAlign=middle;spacingLeft=4;spacingRight=4;overflow=hidden;points=[[0,0.5],[1,0.5]];portConstraint=eastwest;rotatable=0;whiteSpace=wrap;html=1;" vertex="1" parent="y3grwVLMVL60Ikn23H3Z-8">
          <mxGeometry y="60" width="140" height="30" as="geometry" />
        </mxCell>
        <mxCell id="y3grwVLMVL60Ikn23H3Z-11" value="Plano de Estudos" style="text;strokeColor=none;fillColor=none;align=left;verticalAlign=middle;spacingLeft=4;spacingRight=4;overflow=hidden;points=[[0,0.5],[1,0.5]];portConstraint=eastwest;rotatable=0;whiteSpace=wrap;html=1;" vertex="1" parent="y3grwVLMVL60Ikn23H3Z-8">
          <mxGeometry y="90" width="140" height="30" as="geometry" />
        </mxCell>
        <mxCell id="y3grwVLMVL60Ikn23H3Z-17" value="CSES EAD" style="swimlane;fontStyle=0;childLayout=stackLayout;horizontal=1;startSize=30;horizontalStack=0;resizeParent=1;resizeParentMax=0;resizeLast=0;collapsible=1;marginBottom=0;whiteSpace=wrap;html=1;" vertex="1" parent="1">
          <mxGeometry x="343" y="150" width="140" height="120" as="geometry" />
        </mxCell>
        <mxCell id="y3grwVLMVL60Ikn23H3Z-18" value="Hospedagem" style="text;strokeColor=none;fillColor=none;align=left;verticalAlign=middle;spacingLeft=4;spacingRight=4;overflow=hidden;points=[[0,0.5],[1,0.5]];portConstraint=eastwest;rotatable=0;whiteSpace=wrap;html=1;" vertex="1" parent="y3grwVLMVL60Ikn23H3Z-17">
          <mxGeometry y="30" width="140" height="30" as="geometry" />
        </mxCell>
        <mxCell id="y3grwVLMVL60Ikn23H3Z-19" value="Domínio" style="text;strokeColor=none;fillColor=none;align=left;verticalAlign=middle;spacingLeft=4;spacingRight=4;overflow=hidden;points=[[0,0.5],[1,0.5]];portConstraint=eastwest;rotatable=0;whiteSpace=wrap;html=1;" vertex="1" parent="y3grwVLMVL60Ikn23H3Z-17">
          <mxGeometry y="60" width="140" height="30" as="geometry" />
        </mxCell>
        <mxCell id="y3grwVLMVL60Ikn23H3Z-20" value="Desempenho" style="text;strokeColor=none;fillColor=none;align=left;verticalAlign=middle;spacingLeft=4;spacingRight=4;overflow=hidden;points=[[0,0.5],[1,0.5]];portConstraint=eastwest;rotatable=0;whiteSpace=wrap;html=1;" vertex="1" parent="y3grwVLMVL60Ikn23H3Z-17">
          <mxGeometry y="90" width="140" height="30" as="geometry" />
        </mxCell>
        <mxCell id="y3grwVLMVL60Ikn23H3Z-25" value="Cadastro" style="swimlane;fontStyle=0;childLayout=stackLayout;horizontal=1;startSize=30;horizontalStack=0;resizeParent=1;resizeParentMax=0;resizeLast=0;collapsible=1;marginBottom=0;whiteSpace=wrap;html=1;" vertex="1" parent="1">
          <mxGeometry x="180" y="430" width="140" height="120" as="geometry" />
        </mxCell>
        <mxCell id="y3grwVLMVL60Ikn23H3Z-26" value="Alunos" style="text;strokeColor=none;fillColor=none;align=left;verticalAlign=middle;spacingLeft=4;spacingRight=4;overflow=hidden;points=[[0,0.5],[1,0.5]];portConstraint=eastwest;rotatable=0;whiteSpace=wrap;html=1;" vertex="1" parent="y3grwVLMVL60Ikn23H3Z-25">
          <mxGeometry y="30" width="140" height="30" as="geometry" />
        </mxCell>
        <mxCell id="y3grwVLMVL60Ikn23H3Z-27" value="Professores" style="text;strokeColor=none;fillColor=none;align=left;verticalAlign=middle;spacingLeft=4;spacingRight=4;overflow=hidden;points=[[0,0.5],[1,0.5]];portConstraint=eastwest;rotatable=0;whiteSpace=wrap;html=1;" vertex="1" parent="y3grwVLMVL60Ikn23H3Z-25">
          <mxGeometry y="60" width="140" height="30" as="geometry" />
        </mxCell>
        <mxCell id="y3grwVLMVL60Ikn23H3Z-28" value="Comunidade aberta" style="text;strokeColor=none;fillColor=none;align=left;verticalAlign=middle;spacingLeft=4;spacingRight=4;overflow=hidden;points=[[0,0.5],[1,0.5]];portConstraint=eastwest;rotatable=0;whiteSpace=wrap;html=1;" vertex="1" parent="y3grwVLMVL60Ikn23H3Z-25">
          <mxGeometry y="90" width="140" height="30" as="geometry" />
        </mxCell>
        <mxCell id="y3grwVLMVL60Ikn23H3Z-29" value="Dados" style="swimlane;fontStyle=0;childLayout=stackLayout;horizontal=1;startSize=30;horizontalStack=0;resizeParent=1;resizeParentMax=0;resizeLast=0;collapsible=1;marginBottom=0;whiteSpace=wrap;html=1;" vertex="1" parent="1">
          <mxGeometry x="500" y="430" width="140" height="120" as="geometry" />
        </mxCell>
        <mxCell id="y3grwVLMVL60Ikn23H3Z-30" value="Usuário" style="text;strokeColor=none;fillColor=none;align=left;verticalAlign=middle;spacingLeft=4;spacingRight=4;overflow=hidden;points=[[0,0.5],[1,0.5]];portConstraint=eastwest;rotatable=0;whiteSpace=wrap;html=1;" vertex="1" parent="y3grwVLMVL60Ikn23H3Z-29">
          <mxGeometry y="30" width="140" height="30" as="geometry" />
        </mxCell>
        <mxCell id="y3grwVLMVL60Ikn23H3Z-31" value="E-mail" style="text;strokeColor=none;fillColor=none;align=left;verticalAlign=middle;spacingLeft=4;spacingRight=4;overflow=hidden;points=[[0,0.5],[1,0.5]];portConstraint=eastwest;rotatable=0;whiteSpace=wrap;html=1;" vertex="1" parent="y3grwVLMVL60Ikn23H3Z-29">
          <mxGeometry y="60" width="140" height="30" as="geometry" />
        </mxCell>
        <mxCell id="y3grwVLMVL60Ikn23H3Z-32" value="Senha" style="text;strokeColor=none;fillColor=none;align=left;verticalAlign=middle;spacingLeft=4;spacingRight=4;overflow=hidden;points=[[0,0.5],[1,0.5]];portConstraint=eastwest;rotatable=0;whiteSpace=wrap;html=1;" vertex="1" parent="y3grwVLMVL60Ikn23H3Z-29">
          <mxGeometry y="90" width="140" height="30" as="geometry" />
        </mxCell>
      </root>
    </mxGraphModel>
  </diagram>
</mxfile>
